<mxfile host="app.diagrams.net" modified="2020-11-23T06:46:00.591Z" agent="5.0 (Windows NT 10.0; Win64; x64) AppleWebKit/537.36 (KHTML, like Gecko) Chrome/77.0.3865.75 Safari/537.36" etag="QAf0d0ltxQRwReutJoQs" version="13.10.1" type="github">
  <diagram id="916mjzQg44bnQ6U9ui2z" name="Page-1">
    <mxGraphModel dx="868" dy="481" grid="1" gridSize="10" guides="1" tooltips="1" connect="1" arrows="1" fold="1" page="1" pageScale="1" pageWidth="827" pageHeight="1169" math="0" shadow="0">
      <root>
        <mxCell id="0" />
        <mxCell id="1" parent="0" />
        <mxCell id="ovdbi8FJQ23wNGwGJVN4-7" value="" style="edgeStyle=orthogonalEdgeStyle;rounded=0;orthogonalLoop=1;jettySize=auto;html=1;" edge="1" parent="1" source="ovdbi8FJQ23wNGwGJVN4-5">
          <mxGeometry relative="1" as="geometry">
            <mxPoint x="210" y="150" as="targetPoint" />
            <Array as="points">
              <mxPoint x="210" y="130" />
              <mxPoint x="210" y="130" />
            </Array>
          </mxGeometry>
        </mxCell>
        <mxCell id="ovdbi8FJQ23wNGwGJVN4-5" value="&lt;font style=&quot;font-size: 14px&quot;&gt;问题提出&lt;/font&gt;" style="rounded=1;whiteSpace=wrap;html=1;" vertex="1" parent="1">
          <mxGeometry x="150" y="40" width="120" height="60" as="geometry" />
        </mxCell>
        <mxCell id="ovdbi8FJQ23wNGwGJVN4-9" value="" style="edgeStyle=orthogonalEdgeStyle;rounded=0;orthogonalLoop=1;jettySize=auto;html=1;" edge="1" parent="1" source="ovdbi8FJQ23wNGwGJVN4-6" target="ovdbi8FJQ23wNGwGJVN4-8">
          <mxGeometry relative="1" as="geometry" />
        </mxCell>
        <mxCell id="ovdbi8FJQ23wNGwGJVN4-6" value="&lt;font style=&quot;font-size: 14px&quot;&gt;文献资料法&lt;/font&gt;" style="whiteSpace=wrap;html=1;rounded=1;" vertex="1" parent="1">
          <mxGeometry x="150" y="150" width="120" height="60" as="geometry" />
        </mxCell>
        <mxCell id="ovdbi8FJQ23wNGwGJVN4-13" value="" style="edgeStyle=orthogonalEdgeStyle;rounded=0;orthogonalLoop=1;jettySize=auto;html=1;" edge="1" parent="1" source="ovdbi8FJQ23wNGwGJVN4-8" target="ovdbi8FJQ23wNGwGJVN4-12">
          <mxGeometry relative="1" as="geometry" />
        </mxCell>
        <mxCell id="ovdbi8FJQ23wNGwGJVN4-8" value="&lt;font style=&quot;font-size: 14px&quot;&gt;理论研究法&lt;/font&gt;" style="whiteSpace=wrap;html=1;rounded=1;" vertex="1" parent="1">
          <mxGeometry x="150" y="270" width="120" height="50" as="geometry" />
        </mxCell>
        <mxCell id="ovdbi8FJQ23wNGwGJVN4-10" value="Y" style="text;html=1;strokeColor=none;fillColor=none;align=center;verticalAlign=middle;whiteSpace=wrap;rounded=0;" vertex="1" parent="1">
          <mxGeometry x="190" y="110" width="20" height="20" as="geometry" />
        </mxCell>
        <mxCell id="ovdbi8FJQ23wNGwGJVN4-11" value="Y" style="text;html=1;strokeColor=none;fillColor=none;align=center;verticalAlign=middle;whiteSpace=wrap;rounded=0;" vertex="1" parent="1">
          <mxGeometry x="190" y="230" width="20" height="20" as="geometry" />
        </mxCell>
        <mxCell id="ovdbi8FJQ23wNGwGJVN4-49" value="" style="edgeStyle=orthogonalEdgeStyle;rounded=0;orthogonalLoop=1;jettySize=auto;html=1;" edge="1" parent="1" source="ovdbi8FJQ23wNGwGJVN4-12" target="ovdbi8FJQ23wNGwGJVN4-48">
          <mxGeometry relative="1" as="geometry" />
        </mxCell>
        <mxCell id="ovdbi8FJQ23wNGwGJVN4-12" value="&lt;font style=&quot;font-size: 14px&quot;&gt;分析归纳法&lt;/font&gt;" style="whiteSpace=wrap;html=1;rounded=1;" vertex="1" parent="1">
          <mxGeometry x="150" y="370" width="120" height="60" as="geometry" />
        </mxCell>
        <mxCell id="ovdbi8FJQ23wNGwGJVN4-14" value="Y" style="text;html=1;strokeColor=none;fillColor=none;align=center;verticalAlign=middle;whiteSpace=wrap;rounded=0;" vertex="1" parent="1">
          <mxGeometry x="190" y="340" width="20" height="20" as="geometry" />
        </mxCell>
        <mxCell id="ovdbi8FJQ23wNGwGJVN4-22" value="" style="endArrow=classic;html=1;exitX=0;exitY=0.5;exitDx=0;exitDy=0;entryX=0;entryY=0.5;entryDx=0;entryDy=0;" edge="1" parent="1" source="ovdbi8FJQ23wNGwGJVN4-42" target="ovdbi8FJQ23wNGwGJVN4-48">
          <mxGeometry width="50" height="50" relative="1" as="geometry">
            <mxPoint x="140" y="510" as="sourcePoint" />
            <mxPoint x="130" y="370" as="targetPoint" />
            <Array as="points">
              <mxPoint x="120" y="740" />
              <mxPoint x="120" y="510" />
            </Array>
          </mxGeometry>
        </mxCell>
        <mxCell id="ovdbi8FJQ23wNGwGJVN4-23" value="" style="endArrow=classic;html=1;entryX=0;entryY=0.5;entryDx=0;entryDy=0;" edge="1" parent="1" target="ovdbi8FJQ23wNGwGJVN4-6">
          <mxGeometry width="50" height="50" relative="1" as="geometry">
            <mxPoint x="120" y="300" as="sourcePoint" />
            <mxPoint x="440" y="250" as="targetPoint" />
            <Array as="points">
              <mxPoint x="120" y="180" />
            </Array>
          </mxGeometry>
        </mxCell>
        <mxCell id="ovdbi8FJQ23wNGwGJVN4-25" value="N" style="text;html=1;strokeColor=none;fillColor=none;align=center;verticalAlign=middle;whiteSpace=wrap;rounded=0;" vertex="1" parent="1">
          <mxGeometry x="100" y="330" width="20" height="20" as="geometry" />
        </mxCell>
        <mxCell id="ovdbi8FJQ23wNGwGJVN4-26" value="N" style="text;html=1;strokeColor=none;fillColor=none;align=center;verticalAlign=middle;whiteSpace=wrap;rounded=0;" vertex="1" parent="1">
          <mxGeometry x="100" y="230" width="20" height="20" as="geometry" />
        </mxCell>
        <mxCell id="ovdbi8FJQ23wNGwGJVN4-28" value="" style="shape=flexArrow;endArrow=classic;startArrow=classic;html=1;exitX=1;exitY=0.5;exitDx=0;exitDy=0;" edge="1" parent="1" source="ovdbi8FJQ23wNGwGJVN4-5">
          <mxGeometry width="50" height="50" relative="1" as="geometry">
            <mxPoint x="340" y="100" as="sourcePoint" />
            <mxPoint x="470" y="70" as="targetPoint" />
          </mxGeometry>
        </mxCell>
        <mxCell id="ovdbi8FJQ23wNGwGJVN4-31" value="" style="edgeStyle=orthogonalEdgeStyle;rounded=0;orthogonalLoop=1;jettySize=auto;html=1;" edge="1" parent="1" source="ovdbi8FJQ23wNGwGJVN4-29" target="ovdbi8FJQ23wNGwGJVN4-30">
          <mxGeometry relative="1" as="geometry" />
        </mxCell>
        <mxCell id="ovdbi8FJQ23wNGwGJVN4-29" value="&lt;p class=&quot;MsoNormal&quot;&gt;&lt;span style=&quot;font-size: 10.5000pt&quot;&gt;小目标图像检测的研究与实现&lt;/span&gt;&lt;/p&gt;" style="rounded=1;whiteSpace=wrap;html=1;" vertex="1" parent="1">
          <mxGeometry x="470" y="40" width="220" height="60" as="geometry" />
        </mxCell>
        <mxCell id="ovdbi8FJQ23wNGwGJVN4-34" value="" style="edgeStyle=orthogonalEdgeStyle;rounded=0;orthogonalLoop=1;jettySize=auto;html=1;" edge="1" parent="1" source="ovdbi8FJQ23wNGwGJVN4-30" target="ovdbi8FJQ23wNGwGJVN4-33">
          <mxGeometry relative="1" as="geometry" />
        </mxCell>
        <mxCell id="ovdbi8FJQ23wNGwGJVN4-30" value="&lt;font style=&quot;font-size: 14px&quot;&gt;通过文献资料法，大量阅读文献并深入学习，了解目标检测领域的现阶段发展&lt;/font&gt;" style="whiteSpace=wrap;html=1;rounded=1;" vertex="1" parent="1">
          <mxGeometry x="450" y="150" width="260" height="60" as="geometry" />
        </mxCell>
        <mxCell id="ovdbi8FJQ23wNGwGJVN4-32" value="" style="shape=flexArrow;endArrow=classic;startArrow=classic;html=1;exitX=1;exitY=0.5;exitDx=0;exitDy=0;entryX=0;entryY=0.5;entryDx=0;entryDy=0;" edge="1" parent="1" target="ovdbi8FJQ23wNGwGJVN4-30">
          <mxGeometry width="50" height="50" relative="1" as="geometry">
            <mxPoint x="270" y="179.5" as="sourcePoint" />
            <mxPoint x="440" y="180" as="targetPoint" />
          </mxGeometry>
        </mxCell>
        <mxCell id="ovdbi8FJQ23wNGwGJVN4-37" value="" style="edgeStyle=orthogonalEdgeStyle;rounded=0;orthogonalLoop=1;jettySize=auto;html=1;" edge="1" parent="1" source="ovdbi8FJQ23wNGwGJVN4-33" target="ovdbi8FJQ23wNGwGJVN4-36">
          <mxGeometry relative="1" as="geometry" />
        </mxCell>
        <mxCell id="ovdbi8FJQ23wNGwGJVN4-33" value="&lt;font style=&quot;font-size: 14px&quot;&gt;研究每个目标检测算法的优劣势，研究小目标检测尚存在的问题及实质原因&lt;/font&gt;" style="whiteSpace=wrap;html=1;rounded=1;" vertex="1" parent="1">
          <mxGeometry x="440" y="260" width="280" height="60" as="geometry" />
        </mxCell>
        <mxCell id="ovdbi8FJQ23wNGwGJVN4-35" value="" style="shape=flexArrow;endArrow=classic;startArrow=classic;html=1;exitX=1;exitY=0.5;exitDx=0;exitDy=0;" edge="1" parent="1">
          <mxGeometry width="50" height="50" relative="1" as="geometry">
            <mxPoint x="270" y="290" as="sourcePoint" />
            <mxPoint x="440" y="290.5" as="targetPoint" />
          </mxGeometry>
        </mxCell>
        <mxCell id="ovdbi8FJQ23wNGwGJVN4-56" value="" style="edgeStyle=orthogonalEdgeStyle;rounded=0;orthogonalLoop=1;jettySize=auto;html=1;" edge="1" parent="1" source="ovdbi8FJQ23wNGwGJVN4-36" target="ovdbi8FJQ23wNGwGJVN4-55">
          <mxGeometry relative="1" as="geometry" />
        </mxCell>
        <mxCell id="ovdbi8FJQ23wNGwGJVN4-36" value="&lt;font style=&quot;font-size: 14px&quot;&gt;研究现有的小目标检测方法，整理与归纳哪些角度可以作为切入点进行分析研究，分析现有方法能有所改进的原理，进行总结&lt;/font&gt;" style="whiteSpace=wrap;html=1;rounded=1;" vertex="1" parent="1">
          <mxGeometry x="440" y="370" width="280" height="60" as="geometry" />
        </mxCell>
        <mxCell id="ovdbi8FJQ23wNGwGJVN4-38" value="" style="shape=flexArrow;endArrow=classic;startArrow=classic;html=1;exitX=1;exitY=0.5;exitDx=0;exitDy=0;" edge="1" parent="1">
          <mxGeometry width="50" height="50" relative="1" as="geometry">
            <mxPoint x="270" y="399.5" as="sourcePoint" />
            <mxPoint x="440" y="400" as="targetPoint" />
          </mxGeometry>
        </mxCell>
        <mxCell id="ovdbi8FJQ23wNGwGJVN4-41" value="" style="edgeStyle=orthogonalEdgeStyle;rounded=0;orthogonalLoop=1;jettySize=auto;html=1;" edge="1" parent="1" source="ovdbi8FJQ23wNGwGJVN4-42" target="ovdbi8FJQ23wNGwGJVN4-44">
          <mxGeometry relative="1" as="geometry" />
        </mxCell>
        <mxCell id="ovdbi8FJQ23wNGwGJVN4-42" value="&lt;font style=&quot;font-size: 14px&quot;&gt;实证研究法&lt;/font&gt;" style="whiteSpace=wrap;html=1;rounded=1;" vertex="1" parent="1">
          <mxGeometry x="150" y="710" width="120" height="60" as="geometry" />
        </mxCell>
        <mxCell id="ovdbi8FJQ23wNGwGJVN4-43" value="" style="edgeStyle=orthogonalEdgeStyle;rounded=0;orthogonalLoop=1;jettySize=auto;html=1;" edge="1" parent="1" source="ovdbi8FJQ23wNGwGJVN4-44" target="ovdbi8FJQ23wNGwGJVN4-45">
          <mxGeometry relative="1" as="geometry" />
        </mxCell>
        <mxCell id="ovdbi8FJQ23wNGwGJVN4-44" value="论文撰写" style="whiteSpace=wrap;html=1;rounded=1;" vertex="1" parent="1">
          <mxGeometry x="150" y="830" width="120" height="60" as="geometry" />
        </mxCell>
        <mxCell id="ovdbi8FJQ23wNGwGJVN4-45" value="&lt;font style=&quot;font-size: 14px&quot;&gt;论文答辩&lt;/font&gt;" style="whiteSpace=wrap;html=1;rounded=1;" vertex="1" parent="1">
          <mxGeometry x="150" y="930" width="120" height="60" as="geometry" />
        </mxCell>
        <mxCell id="ovdbi8FJQ23wNGwGJVN4-51" value="" style="edgeStyle=orthogonalEdgeStyle;rounded=0;orthogonalLoop=1;jettySize=auto;html=1;" edge="1" parent="1" source="ovdbi8FJQ23wNGwGJVN4-48" target="ovdbi8FJQ23wNGwGJVN4-42">
          <mxGeometry relative="1" as="geometry" />
        </mxCell>
        <mxCell id="ovdbi8FJQ23wNGwGJVN4-48" value="&lt;font style=&quot;font-size: 14px&quot;&gt;解决问题方法提出&lt;/font&gt;" style="whiteSpace=wrap;html=1;rounded=1;" vertex="1" parent="1">
          <mxGeometry x="150" y="480" width="120" height="60" as="geometry" />
        </mxCell>
        <mxCell id="ovdbi8FJQ23wNGwGJVN4-53" value="Y" style="text;html=1;strokeColor=none;fillColor=none;align=center;verticalAlign=middle;whiteSpace=wrap;rounded=0;" vertex="1" parent="1">
          <mxGeometry x="190" y="440" width="20" height="20" as="geometry" />
        </mxCell>
        <mxCell id="ovdbi8FJQ23wNGwGJVN4-54" value="" style="shape=flexArrow;endArrow=classic;startArrow=classic;html=1;exitX=1;exitY=0.5;exitDx=0;exitDy=0;entryX=0;entryY=0.5;entryDx=0;entryDy=0;" edge="1" parent="1" target="ovdbi8FJQ23wNGwGJVN4-55">
          <mxGeometry width="50" height="50" relative="1" as="geometry">
            <mxPoint x="270" y="509.5" as="sourcePoint" />
            <mxPoint x="440" y="510" as="targetPoint" />
          </mxGeometry>
        </mxCell>
        <mxCell id="ovdbi8FJQ23wNGwGJVN4-66" value="" style="edgeStyle=orthogonalEdgeStyle;rounded=0;orthogonalLoop=1;jettySize=auto;html=1;" edge="1" parent="1" source="ovdbi8FJQ23wNGwGJVN4-55" target="ovdbi8FJQ23wNGwGJVN4-65">
          <mxGeometry relative="1" as="geometry" />
        </mxCell>
        <mxCell id="ovdbi8FJQ23wNGwGJVN4-55" value="&lt;font style=&quot;font-size: 14px&quot;&gt;提出小目标检测改进的创新点，加以理论分析其原理，并作可行性分析。&lt;/font&gt;" style="whiteSpace=wrap;html=1;rounded=1;" vertex="1" parent="1">
          <mxGeometry x="460" y="480" width="240" height="60" as="geometry" />
        </mxCell>
        <mxCell id="ovdbi8FJQ23wNGwGJVN4-59" value="Y" style="text;html=1;strokeColor=none;fillColor=none;align=center;verticalAlign=middle;whiteSpace=wrap;rounded=0;" vertex="1" parent="1">
          <mxGeometry x="190" y="620" width="20" height="20" as="geometry" />
        </mxCell>
        <mxCell id="ovdbi8FJQ23wNGwGJVN4-61" value="" style="endArrow=classic;html=1;entryX=0;entryY=0.5;entryDx=0;entryDy=0;" edge="1" parent="1" target="ovdbi8FJQ23wNGwGJVN4-12">
          <mxGeometry width="50" height="50" relative="1" as="geometry">
            <mxPoint x="120" y="515" as="sourcePoint" />
            <mxPoint x="150" y="385" as="targetPoint" />
            <Array as="points">
              <mxPoint x="120" y="400" />
            </Array>
          </mxGeometry>
        </mxCell>
        <mxCell id="ovdbi8FJQ23wNGwGJVN4-62" value="" style="endArrow=classic;html=1;entryX=0;entryY=0.5;entryDx=0;entryDy=0;" edge="1" parent="1">
          <mxGeometry width="50" height="50" relative="1" as="geometry">
            <mxPoint x="120" y="407.5" as="sourcePoint" />
            <mxPoint x="150" y="292.5" as="targetPoint" />
            <Array as="points">
              <mxPoint x="120" y="292.5" />
            </Array>
          </mxGeometry>
        </mxCell>
        <mxCell id="ovdbi8FJQ23wNGwGJVN4-63" value="N" style="text;html=1;strokeColor=none;fillColor=none;align=center;verticalAlign=middle;whiteSpace=wrap;rounded=0;" vertex="1" parent="1">
          <mxGeometry x="100" y="450" width="20" height="20" as="geometry" />
        </mxCell>
        <mxCell id="ovdbi8FJQ23wNGwGJVN4-64" value="N" style="text;html=1;strokeColor=none;fillColor=none;align=center;verticalAlign=middle;whiteSpace=wrap;rounded=0;" vertex="1" parent="1">
          <mxGeometry x="100" y="620" width="20" height="20" as="geometry" />
        </mxCell>
        <mxCell id="ovdbi8FJQ23wNGwGJVN4-72" value="" style="edgeStyle=orthogonalEdgeStyle;rounded=0;orthogonalLoop=1;jettySize=auto;html=1;entryX=0.5;entryY=1;entryDx=0;entryDy=0;" edge="1" parent="1" source="ovdbi8FJQ23wNGwGJVN4-65" target="ovdbi8FJQ23wNGwGJVN4-71">
          <mxGeometry relative="1" as="geometry">
            <Array as="points">
              <mxPoint x="750" y="740" />
            </Array>
          </mxGeometry>
        </mxCell>
        <mxCell id="ovdbi8FJQ23wNGwGJVN4-82" value="" style="edgeStyle=orthogonalEdgeStyle;rounded=0;orthogonalLoop=1;jettySize=auto;html=1;exitX=0.5;exitY=1;exitDx=0;exitDy=0;" edge="1" parent="1" source="ovdbi8FJQ23wNGwGJVN4-65" target="ovdbi8FJQ23wNGwGJVN4-81">
          <mxGeometry relative="1" as="geometry">
            <mxPoint x="610" y="800" as="sourcePoint" />
          </mxGeometry>
        </mxCell>
        <mxCell id="ovdbi8FJQ23wNGwGJVN4-65" value="&lt;font style=&quot;font-size: 14px&quot;&gt;进行实验验证创新点的方案&lt;/font&gt;" style="rhombus;whiteSpace=wrap;html=1;" vertex="1" parent="1">
          <mxGeometry x="450" y="700" width="260" height="80" as="geometry" />
        </mxCell>
        <mxCell id="ovdbi8FJQ23wNGwGJVN4-67" value="" style="shape=flexArrow;endArrow=classic;startArrow=classic;html=1;exitX=1;exitY=0.5;exitDx=0;exitDy=0;entryX=0;entryY=0.5;entryDx=0;entryDy=0;" edge="1" parent="1" source="ovdbi8FJQ23wNGwGJVN4-42" target="ovdbi8FJQ23wNGwGJVN4-65">
          <mxGeometry width="50" height="50" relative="1" as="geometry">
            <mxPoint x="270" y="639.5" as="sourcePoint" />
            <mxPoint x="460" y="640" as="targetPoint" />
          </mxGeometry>
        </mxCell>
        <mxCell id="ovdbi8FJQ23wNGwGJVN4-74" value="" style="edgeStyle=orthogonalEdgeStyle;rounded=0;orthogonalLoop=1;jettySize=auto;html=1;" edge="1" parent="1" source="ovdbi8FJQ23wNGwGJVN4-71" target="ovdbi8FJQ23wNGwGJVN4-73">
          <mxGeometry relative="1" as="geometry" />
        </mxCell>
        <mxCell id="ovdbi8FJQ23wNGwGJVN4-71" value="&lt;font style=&quot;font-size: 14px&quot;&gt;改进算法&lt;/font&gt;" style="whiteSpace=wrap;html=1;" vertex="1" parent="1">
          <mxGeometry x="690" y="660" width="120" height="40" as="geometry" />
        </mxCell>
        <mxCell id="ovdbi8FJQ23wNGwGJVN4-73" value="调整算法参数" style="whiteSpace=wrap;html=1;" vertex="1" parent="1">
          <mxGeometry x="690" y="585" width="120" height="40" as="geometry" />
        </mxCell>
        <mxCell id="ovdbi8FJQ23wNGwGJVN4-77" value="" style="endArrow=classic;html=1;entryX=1;entryY=0.5;entryDx=0;entryDy=0;" edge="1" parent="1" target="ovdbi8FJQ23wNGwGJVN4-36">
          <mxGeometry width="50" height="50" relative="1" as="geometry">
            <mxPoint x="750" y="530" as="sourcePoint" />
            <mxPoint x="520" y="450" as="targetPoint" />
            <Array as="points">
              <mxPoint x="750" y="400" />
            </Array>
          </mxGeometry>
        </mxCell>
        <mxCell id="ovdbi8FJQ23wNGwGJVN4-78" value="" style="endArrow=classic;html=1;entryX=1;entryY=0.5;entryDx=0;entryDy=0;" edge="1" parent="1" target="ovdbi8FJQ23wNGwGJVN4-33">
          <mxGeometry width="50" height="50" relative="1" as="geometry">
            <mxPoint x="750" y="410" as="sourcePoint" />
            <mxPoint x="520" y="350" as="targetPoint" />
            <Array as="points">
              <mxPoint x="750" y="290" />
            </Array>
          </mxGeometry>
        </mxCell>
        <mxCell id="ovdbi8FJQ23wNGwGJVN4-79" value="" style="endArrow=classic;html=1;entryX=1;entryY=0.5;entryDx=0;entryDy=0;" edge="1" parent="1" target="ovdbi8FJQ23wNGwGJVN4-30">
          <mxGeometry width="50" height="50" relative="1" as="geometry">
            <mxPoint x="750" y="300" as="sourcePoint" />
            <mxPoint x="520" y="350" as="targetPoint" />
            <Array as="points">
              <mxPoint x="750" y="180" />
            </Array>
          </mxGeometry>
        </mxCell>
        <mxCell id="ovdbi8FJQ23wNGwGJVN4-80" value="" style="endArrow=classic;html=1;entryX=1;entryY=0.5;entryDx=0;entryDy=0;" edge="1" parent="1" target="ovdbi8FJQ23wNGwGJVN4-55">
          <mxGeometry width="50" height="50" relative="1" as="geometry">
            <mxPoint x="750" y="585" as="sourcePoint" />
            <mxPoint x="720" y="475" as="targetPoint" />
            <Array as="points">
              <mxPoint x="750" y="510" />
            </Array>
          </mxGeometry>
        </mxCell>
        <mxCell id="ovdbi8FJQ23wNGwGJVN4-89" value="" style="edgeStyle=orthogonalEdgeStyle;rounded=0;orthogonalLoop=1;jettySize=auto;html=1;" edge="1" parent="1" source="ovdbi8FJQ23wNGwGJVN4-81" target="ovdbi8FJQ23wNGwGJVN4-88">
          <mxGeometry relative="1" as="geometry" />
        </mxCell>
        <mxCell id="ovdbi8FJQ23wNGwGJVN4-81" value="&lt;font style=&quot;font-size: 14px&quot;&gt;论文的撰写与修改&lt;/font&gt;" style="whiteSpace=wrap;html=1;rounded=1;" vertex="1" parent="1">
          <mxGeometry x="460" y="840" width="240" height="40" as="geometry" />
        </mxCell>
        <mxCell id="ovdbi8FJQ23wNGwGJVN4-83" value="" style="shape=flexArrow;endArrow=classic;startArrow=classic;html=1;exitX=1;exitY=0.5;exitDx=0;exitDy=0;entryX=0;entryY=0.5;entryDx=0;entryDy=0;" edge="1" parent="1" target="ovdbi8FJQ23wNGwGJVN4-81">
          <mxGeometry width="50" height="50" relative="1" as="geometry">
            <mxPoint x="270" y="859.5" as="sourcePoint" />
            <mxPoint x="450" y="859.5" as="targetPoint" />
          </mxGeometry>
        </mxCell>
        <mxCell id="ovdbi8FJQ23wNGwGJVN4-84" value="Y" style="text;html=1;strokeColor=none;fillColor=none;align=center;verticalAlign=middle;whiteSpace=wrap;rounded=0;" vertex="1" parent="1">
          <mxGeometry x="560" y="800" width="20" height="20" as="geometry" />
        </mxCell>
        <mxCell id="ovdbi8FJQ23wNGwGJVN4-86" value="N" style="text;html=1;strokeColor=none;fillColor=none;align=center;verticalAlign=middle;whiteSpace=wrap;rounded=0;" vertex="1" parent="1">
          <mxGeometry x="720" y="740" width="20" height="20" as="geometry" />
        </mxCell>
        <mxCell id="ovdbi8FJQ23wNGwGJVN4-88" value="进行论文答辩和定稿" style="whiteSpace=wrap;html=1;rounded=1;" vertex="1" parent="1">
          <mxGeometry x="460" y="940" width="240" height="40" as="geometry" />
        </mxCell>
        <mxCell id="ovdbi8FJQ23wNGwGJVN4-90" value="" style="shape=flexArrow;endArrow=classic;startArrow=classic;html=1;exitX=1;exitY=0.5;exitDx=0;exitDy=0;" edge="1" parent="1">
          <mxGeometry width="50" height="50" relative="1" as="geometry">
            <mxPoint x="270" y="959.5" as="sourcePoint" />
            <mxPoint x="460" y="960" as="targetPoint" />
          </mxGeometry>
        </mxCell>
      </root>
    </mxGraphModel>
  </diagram>
</mxfile>
